<svg width="424" height="130" viewBox="0 0 424 130" fill="none" xmlns="http://www.w3.org/2000/svg">
<path d="M160.286 83.833L160.117 71.5029H162.143L190.506 42.62H202.831L172.61 73.1919H171.766L160.286 83.833ZM151 107.48V21H160.961V107.48H151ZM192.195 107.48L166.87 75.3877L173.961 68.4626L204.857 107.48H192.195Z" fill="white"/>
<path d="M234.73 109C230.621 109 226.893 108.226 223.545 106.678C220.196 105.101 217.537 102.835 215.567 99.8791C213.598 96.8951 212.613 93.2918 212.613 89.0691C212.613 85.3532 213.344 82.341 214.808 80.0326C216.271 77.6961 218.226 75.8663 220.675 74.5432C223.123 73.2201 225.824 72.2348 228.778 71.5873C231.761 70.9117 234.758 70.3768 237.769 69.9827C241.708 69.476 244.902 69.096 247.35 68.8426C249.826 68.5611 251.627 68.0966 252.752 67.4491C253.906 66.8017 254.483 65.6756 254.483 64.071V63.7332C254.483 59.5669 253.343 56.3295 251.064 54.0211C248.813 51.7127 245.394 50.5585 240.808 50.5585C236.052 50.5585 232.324 51.6001 229.623 53.6833C226.921 55.7665 225.022 57.9904 223.925 60.3551L214.47 56.977C216.158 53.0358 218.409 49.9674 221.223 47.7716C224.065 45.5477 227.16 43.9994 230.509 43.1267C233.886 42.2258 237.206 41.7754 240.47 41.7754C242.552 41.7754 244.944 42.0288 247.645 42.5355C250.375 43.0141 253.006 44.0134 255.538 45.5336C258.099 47.0537 260.223 49.3481 261.912 52.4165C263.6 55.485 264.444 59.595 264.444 64.7466V107.48H254.483V98.6967H253.976C253.301 100.104 252.176 101.61 250.6 103.215C249.024 104.82 246.928 106.185 244.311 107.311C241.694 108.437 238.5 109 234.73 109ZM236.249 100.048C240.189 100.048 243.509 99.2738 246.21 97.7255C248.94 96.1772 250.994 94.1785 252.373 91.7294C253.779 89.2802 254.483 86.7044 254.483 84.0019V74.881C254.061 75.3877 253.132 75.8522 251.697 76.2745C250.29 76.6686 248.658 77.0205 246.801 77.3301C244.972 77.6116 243.185 77.865 241.441 78.0902C239.724 78.2873 238.331 78.4562 237.262 78.5969C234.673 78.9347 232.254 79.4837 230.002 80.2438C227.779 80.9757 225.979 82.0877 224.6 83.5797C223.249 85.0435 222.574 87.0422 222.574 89.5758C222.574 93.0384 223.854 95.6564 226.415 97.4299C229.004 99.1753 232.282 100.048 236.249 100.048Z" fill="white"/>
<path d="M320.401 42.62V51.0653H277.222V42.62H320.401ZM287.015 27.0806H296.976V88.9002C296.976 91.7153 297.384 93.8266 298.2 95.2342C299.044 96.6136 300.113 97.5425 301.407 98.0211C302.73 98.4715 304.123 98.6967 305.586 98.6967C306.683 98.6967 307.584 98.6404 308.287 98.5278C308.991 98.3871 309.554 98.2745 309.976 98.19L312.002 107.142C311.326 107.395 310.384 107.649 309.174 107.902C307.964 108.184 306.43 108.324 304.573 108.324C301.759 108.324 299.002 107.719 296.3 106.509C293.627 105.298 291.404 103.454 289.631 100.977C287.887 98.4997 287.015 95.3749 287.015 91.6027V27.0806Z" fill="white"/>
<path d="M353.998 42.62V51.0653H320.401V42.62H353.998ZM330.193 27.0806H340.154V88.9002C340.154 91.7153 340.562 93.8266 341.378 95.2342C342.222 96.6136 343.292 97.5425 344.586 98.0211C345.909 98.4715 347.301 98.6967 348.765 98.6967C349.862 98.6967 350.762 98.6404 351.466 98.5278C352.169 98.3871 352.732 98.2745 353.154 98.19L355.18 107.142C354.505 107.395 353.562 107.649 352.352 107.902C351.142 108.184 349.609 108.324 347.752 108.324C344.938 108.324 342.18 107.719 339.479 106.509C336.806 105.298 334.583 103.454 332.81 100.977C331.065 98.4997 330.193 95.3749 330.193 91.6027V27.0806Z" fill="white"/>
<path d="M394.623 108.831C388.771 108.831 383.635 107.438 379.218 104.651C374.828 101.864 371.395 97.9648 368.919 92.9539C366.471 87.9431 365.247 82.0877 365.247 75.3877C365.247 68.6315 366.471 62.7338 368.919 57.6948C371.395 52.6558 374.828 48.7428 379.218 45.9559C383.635 43.1689 388.771 41.7754 394.623 41.7754C400.476 41.7754 405.597 43.1689 409.987 45.9559C414.405 48.7428 417.838 52.6558 420.286 57.6948C422.762 62.7338 424 68.6315 424 75.3877C424 82.0877 422.762 87.9431 420.286 92.9539C417.838 97.9648 414.405 101.864 409.987 104.651C405.597 107.438 400.476 108.831 394.623 108.831ZM394.623 99.8791C399.069 99.8791 402.727 98.739 405.597 96.4587C408.468 94.1785 410.592 91.1804 411.971 87.4645C413.35 83.7486 414.039 79.723 414.039 75.3877C414.039 71.0525 413.35 67.0128 411.971 63.2687C410.592 59.5246 408.468 56.4984 405.597 54.19C402.727 51.8816 399.069 50.7274 394.623 50.7274C390.177 50.7274 386.519 51.8816 383.649 54.19C380.779 56.4984 378.655 59.5246 377.276 63.2687C375.897 67.0128 375.208 71.0525 375.208 75.3877C375.208 79.723 375.897 83.7486 377.276 87.4645C378.655 91.1804 380.779 94.1785 383.649 96.4587C386.519 98.739 390.177 99.8791 394.623 99.8791Z" fill="white"/>
<path fill-rule="evenodd" clip-rule="evenodd" d="M65 130C100.899 130 130 100.899 130 65C130 29.1015 100.899 0 65 0C29.1015 0 0 29.1015 0 65C0 100.899 29.1015 130 65 130ZM39 28C36.7909 28 35 29.7909 35 32V99C35 101.209 36.7909 103 39 103H85.1151C88.6395 103 90.4414 98.7723 88.0007 96.2299L61.1593 68.2701C59.6734 66.7223 59.6734 64.2777 61.1593 62.7299L88.0007 34.7701C90.4414 32.2277 88.6395 28 85.1151 28H39Z" fill="white"/>
</svg>
