<svg fill="#FFFFFF" xmlns="http://www.w3.org/2000/svg"  viewBox="0 0 50 50" width="50px" height="50px"><path d="M 11 1 C 10.636719 1 10.304688 1.199219 10.125 1.515625 L 5.414063 10 L 21.75 10 L 31.570313 1 Z M 33.230469 2.195313 L 23.71875 10.90625 L 44 23.8125 L 44.382813 23.570313 Z M 7.402344 12 L 16.371094 14.929688 L 19.566406 12 Z M 23 12.824219 L 23 17.09375 L 36.804688 21.609375 Z M 21 13.402344 L 18.550781 15.640625 L 21 16.441406 Z M 16.859375 17.191406 L 8.34375 25 L 16.859375 32.808594 L 21 31.453125 L 21 18.546875 Z M 23 19.199219 L 23 30.800781 L 40.753906 25 Z M 44 26.1875 L 23.71875 39.09375 L 33.230469 47.808594 L 44.382813 26.429688 Z M 36.804688 28.390625 L 23 32.90625 L 23 37.175781 Z M 21 33.558594 L 18.550781 34.359375 L 21 36.597656 Z M 16.371094 35.070313 L 7.402344 38 L 19.566406 38 Z M 5.414063 40 L 10.125 48.484375 C 10.304688 48.800781 10.636719 49 11 49 L 31.570313 49 L 21.75 40 Z"/></svg>